<svg id="svg-logo-velatowers" xmlns="http://www.w3.org/2000/svg" xmlns:xlink="http://www.w3.org/1999/xlink" width="438.384" height="253.795" viewBox="0 0 438.384 253.795">
  <defs>
    <clipPath id="clip-path">
      <rect id="Rect치ngulo_3" data-name="Rect치ngulo 3" width="438.384" height="253.795" fill="none"/>
    </clipPath>
  </defs>
  <g id="Grupo_1" data-name="Grupo 1" clip-path="url(#clip-path)">
    <path id="Trazado_1" data-name="Trazado 1" d="M313.749,565.413h-.309v-9.579c0-.572-.34-.788-.927-.788h-.325v-.34c1.313-.093,1.762-.355,2.117-1l.309-.031v5.577a2.727,2.727,0,0,1,2.163-1.143c1.669,0,3.013,1.654,3.013,3.692s-1.344,3.693-3.028,3.693a3.059,3.059,0,0,1-2.456-1.468Zm2.889-.448c1.406,0,1.823-1.653,1.823-2.951,0-1.359-.478-3.4-2.008-3.4-1.437,0-1.823,1.684-1.823,2.889,0,1.221.4,3.461,2.008,3.461" transform="translate(-177.623 -315.017)" fill="#fff"/>
    <path id="Trazado_2" data-name="Trazado 2" d="M337.244,572.943h.185a1.267,1.267,0,0,0,1.236.818,1.64,1.64,0,0,0,1.437-1.143l.68-1.576-2.364-5.562c-.278-.634-.634-.989-1.159-.989h-.232v-.356h3.507v.356H340.3c-.541,0-.8.4-.556.989l1.668,4.094,1.715-4.094c.247-.572-.031-.989-.587-.989h-.232v-.356h2.8v.356h-.232c-.525,0-.881.355-1.159.989l-3.075,7.276c-.417,1.035-.973,2.009-1.962,2.009a2.854,2.854,0,0,1-1.3-.417Z" transform="translate(-191.755 -320.971)" fill="#fff"/>
    <path id="Trazado_3" data-name="Trazado 3" d="M385.413,561.675v-.386h4.218v.386h-.294c-.6,0-.9.417-.9,1.221v2.379a5.915,5.915,0,0,1-3.754,1.3,5.61,5.61,0,1,1-.232-11.216,15.6,15.6,0,0,1,2.055.278c.278,0,.278-.046.479-.247h.232l.68,2.5h-.386l-.124-.247a3.29,3.29,0,0,0-3.106-1.715c-2.657,0-3.909,2.225-3.909,4.341,0,2.565,1.808,5.732,4.758,5.732a2.885,2.885,0,0,0,1.947-.664V562.9a1.075,1.075,0,0,0-1.221-1.221Z" transform="translate(-215.575 -315.975)" fill="#fff"/>
    <path id="Trazado_4" data-name="Trazado 4" d="M414.706,561.43v3.615c0,.8.294,1.2.9,1.2h.479v.387h-4.249v-.387h.6c.618,0,.912-.4.912-1.2v-7.617c0-.8-.294-1.221-.912-1.221h-.6v-.386h4.512a3.393,3.393,0,0,1,3.538,3.46,3.241,3.241,0,0,1-2.3,3.183l1.931,2.58a2.449,2.449,0,0,0,1.808,1.2h.525v.387H417.41v-.387h.6c.618,0,.587-.417,0-1.2l-1.931-2.6a2.7,2.7,0,0,1-1.375-1.019m1.777.71c1.205,0,1.947-1.391,1.947-2.812,0-1.545-.881-3.121-2.5-3.121h-.386c-.556,0-.835.417-.835,1.221v3.353a2,2,0,0,0,1.777,1.359" transform="translate(-234.316 -316.241)" fill="#fff"/>
    <path id="Trazado_5" data-name="Trazado 5" d="M441.448,557.428c0-.8-.294-1.221-.912-1.221h-.6v-.386h4.388v.386h-.309c-.8,0-1.205.525-1.205,1.53v5.16c0,2.194.927,3.275,2.812,3.275s2.812-1.081,2.812-3.275v-5.16c0-1-.386-1.53-1.221-1.53h-.294v-.386h3.77v.386h-.618c-.6,0-.9.417-.9,1.221v5.083c0,2.889-1.267,4.326-3.863,4.326s-3.862-1.422-3.862-4.326Z" transform="translate(-250.305 -316.24)" fill="#fff"/>
    <path id="Trazado_6" data-name="Trazado 6" d="M476.537,561.894v3.152c0,.8.294,1.2.9,1.2h.68v.386h-4.45v-.386h.6c.618,0,.912-.4.912-1.2v-7.617c0-.8-.294-1.221-.912-1.221h-.6v-.386h4.588a3.544,3.544,0,0,1,3.616,3.692,3.337,3.337,0,0,1-3.152,3.507,2.635,2.635,0,0,1-2.178-1.128m1.838.71c1.267,0,2.039-1.5,2.039-3.028,0-1.669-.927-3.369-2.6-3.369H477.4c-.587,0-.865.417-.865,1.221v3.8a2.057,2.057,0,0,0,1.838,1.375" transform="translate(-269.495 -316.241)" fill="#fff"/>
    <path id="Trazado_7" data-name="Trazado 7" d="M507.335,555.356a5.608,5.608,0,1,1-5.608,5.608,5.618,5.618,0,0,1,5.608-5.608M507.861,566c2.348,0,3.6-2.225,3.6-4.326,0-2.564-1.869-5.747-4.666-5.747-2.333,0-3.585,2.225-3.585,4.341,0,2.565,1.854,5.732,4.65,5.732" transform="translate(-285.463 -315.975)" fill="#fff"/>
    <path id="Trazado_8" data-name="Trazado 8" d="M550.761,556.207v-.386h4.5v.386h-.263c-.973,0-1.251.479-.911,1.313l2.827,6.891,2.642-6.6c.417-1.051.293-1.607-.85-1.607h-.232v-.386h3.692v.386h-.386c-.618,0-1.035.417-1.36,1.221l-3.8,9.208h-.247l-3.8-9.208a1.723,1.723,0,0,0-1.591-1.221Z" transform="translate(-313.361 -316.24)" fill="#fff"/>
    <path id="Trazado_9" data-name="Trazado 9" d="M592.314,559.59h.355v3.152h-.355v-.154c0-.742-.371-1.143-1.066-1.143h-2.487v3.584c0,.788.294,1.19.9,1.19h.6c1.885,0,2.6-.325,3.137-1.406l.123-.247h.386l-.556,2.07h-7.462v-.387h.6c.618,0,.912-.417.912-1.22v-7.6c0-.8-.294-1.221-.912-1.221h-.6v-.386h7.154l.556,2.07h-.387l-.123-.247c-.541-1.081-1.251-1.405-3.136-1.405h-.294c-.6,0-.9.4-.9,1.189v3.461h2.487c.7,0,1.066-.386,1.066-1.143Z" transform="translate(-333.346 -316.24)" fill="#fff"/>
    <path id="Trazado_10" data-name="Trazado 10" d="M614.857,565.03v-7.617c0-.8-.294-1.205-.911-1.205h-.6v-.386h4.388v.386h-.618c-.6,0-.9.4-.9,1.205v7.617c0,.788.294,1.19.9,1.19h.6c1.885,0,2.6-.325,3.136-1.406l.123-.247h.387l-.556,2.07h-7.463v-.387h.6c.618,0,.911-.417.911-1.22" transform="translate(-348.968 -316.241)" fill="#fff"/>
    <path id="Trazado_11" data-name="Trazado 11" d="M642.692,564.439c-.417,1.051-.293,1.607.85,1.607h.231v.386h-3.692v-.386h.386c.618,0,1.035-.417,1.36-1.22l3.631-9.054c.077-.2.2-.309.325-.309s.262.108.355.325l3.754,9.038a1.737,1.737,0,0,0,1.591,1.22h.216v.386h-4.5v-.386h.263c.973,0,1.236-.479.911-1.313l-.71-1.792a.566.566,0,0,0-.572-.386h-3.229a.567.567,0,0,0-.587.4Zm4.249-2.564c.216,0,.262-.093.185-.294l-1.669-4.218-1.637,4.187c-.093.216,0,.325.231.325Z" transform="translate(-364.181 -316.036)" fill="#fff"/>
    <path id="Trazado_12" data-name="Trazado 12" d="M681.313,555.387l.68,2.5h-.386l-.123-.247a3.088,3.088,0,0,0-2.828-1.715c-1.251,0-2.07.726-2.07,1.638,0,2.426,5.917,1.931,5.917,5.639a3.2,3.2,0,0,1-3.414,3.244,18.729,18.729,0,0,1-2.719-.464c-.216,0-.293.108-.463.433h-.232v-3.43h.386a3.116,3.116,0,0,0,3.106,2.889,2.178,2.178,0,0,0,2.441-2.055c0-2.827-5.917-2.333-5.917-5.716a2.765,2.765,0,0,1,3-2.75c.881,0,1.545.278,2.009.278.185,0,.185-.046.386-.247Z" transform="translate(-384.431 -315.975)" fill="#fff"/>
    <path id="Trazado_13" data-name="Trazado 13" d="M477.574,24.036c-7.826-2.456-14.877-7.005-23.067-7.671a36.535,36.535,0,0,0-5.44,0q-2.863.2-5.174.564a63,63,0,0,0-7.319,1.66.127.127,0,0,1-.164-.123L436.418.143A.146.146,0,0,1,436.566,0h71.4a.2.2,0,0,1,.2.2V21.481a.432.432,0,0,1-.217.376,54.731,54.731,0,0,1-4.97,2.591,24.478,24.478,0,0,1-12.306,2.064,58.678,58.678,0,0,1-13.1-2.477m-4.43-5.166a53.4,53.4,0,0,0,17.537,4.41,21.046,21.046,0,0,0,9.94-1.378,44.432,44.432,0,0,0,4.144-2.015.439.439,0,0,0,.225-.38l-.016-16.184a.156.156,0,0,0-.159-.156l-65,0a.192.192,0,0,0-.216.216V14.194c0,.151.073.213.225.184a56.187,56.187,0,0,1,14.436-1.259c6.568.29,12.719,3.012,18.882,5.751" transform="translate(-248.3)" fill="#fff"/>
    <path id="Trazado_14" data-name="Trazado 14" d="M474.675,53.233a43.083,43.083,0,0,0,14.987,4.059,15.607,15.607,0,0,0,9.126-1.66q3.672-2.017,7.806-4.774A11.635,11.635,0,0,1,507.9,50.1a.175.175,0,0,1,.253.156V74.992c0,.151-.073.208-.221.172q-2.636-.68-5.44-1.263a38.535,38.535,0,0,0-11.284-.772,24.117,24.117,0,0,0-7.385,2.052q-4.249,1.845-8.767,3.919a50.766,50.766,0,0,1-13.577,3.911,37.1,37.1,0,0,1-7.814.441c-6.339-.376-11.84-3.523-16.9-7.393a.88.88,0,0,1-.364-.744l.012-25.152a.48.48,0,0,1,.368-.466c1.369-.335,2.611-.912,4.013-1.271a52.843,52.843,0,0,1,11.566-1.549A33.818,33.818,0,0,1,466.6,49.633q4.224,1.772,8.076,3.6m-1.451,2.951c-5.141-2.407-10.352-4.888-15.767-5.82-1.026-.176-2.113-.041-3.143-.168a10,10,0,0,0-2.1-.025c-1.361.127-2.714.078-4.075.217a40.578,40.578,0,0,0-8.243,1.7.439.439,0,0,0-.306.421L439.6,73.68a.688.688,0,0,0,.262.535c3.261,2.579,7.667,5.072,11.9,5.759,5.334.866,11.207-.225,16.8-1.9,7.3-2.178,13.61-6.723,21.2-8.084a35.416,35.416,0,0,1,5.693-.172,38.719,38.719,0,0,1,9.249,1.21.226.226,0,0,0,.278-.221l0-14.823a.135.135,0,0,0-.213-.11c-3.077,2.129-6.629,4.152-10.336,4.594a25.691,25.691,0,0,1-5.525.045,47.478,47.478,0,0,1-15.678-4.332" transform="translate(-248.295 -26.663)" fill="#fff"/>
    <path id="Trazado_15" data-name="Trazado 15" d="M477.477,146.789c-4.279-1.406-8.812-3.646-13.238-5.407a34.08,34.08,0,0,0-11.219-2.522,22.386,22.386,0,0,0-3.1.094c-1.365.139-2.726.115-4.1.3a55.666,55.666,0,0,0-9.1,2,.228.228,0,0,1-.294-.216l0-20.967a.192.192,0,0,1,.294-.163c2.407,1.5,4.974,3.261,7.422,4.578a21.254,21.254,0,0,0,10.692,2.644,50.5,50.5,0,0,0,11.922-1.876c8.664-2.346,16.614-8.068,25.637-8.566A55.507,55.507,0,0,1,507.86,118a.357.357,0,0,1,.306.384l.008,25.4a.874.874,0,0,1-.364.711,26.786,26.786,0,0,1-9.96,4.459,31.164,31.164,0,0,1-6.392.38,17.128,17.128,0,0,1-2.481-.127,62.806,62.806,0,0,1-11.5-2.411m-4.553-5.3a53.441,53.441,0,0,0,16.013,4.447,22.638,22.638,0,0,0,15.727-3.294.674.674,0,0,0,.323-.576V120.93a.276.276,0,0,0-.225-.27,69.481,69.481,0,0,0-7.263-.825,31.179,31.179,0,0,0-13.43,2.121c-4.921,1.933-9.715,4.357-14.562,5.885a56.4,56.4,0,0,1-13.05,2.436c-6.306.445-11.321-1.157-16.7-4.545a.1.1,0,0,0-.155.086v11.014q0,.239.233.184a52.189,52.189,0,0,1,10.295-1.344,32.351,32.351,0,0,1,10.52,1.066,98.706,98.706,0,0,1,12.269,4.749" transform="translate(-248.305 -66.34)" fill="#fff"/>
    <path id="Trazado_16" data-name="Trazado 16" d="M453.985,190.455a44.081,44.081,0,0,0-17.227,2.665.251.251,0,0,1-.339-.237L436.432,179a.551.551,0,0,1,.409-.527q3.733-.981,7.263-1.578a49.75,49.75,0,0,1,10.479-.515c9.878.45,18.175,7.638,27.89,10.091a50.189,50.189,0,0,0,9.319,1.557,19.186,19.186,0,0,0,10.524-2.432q2.581-1.428,5.542-2.71a.218.218,0,0,1,.306.2v12.772a.438.438,0,0,1-.188.372,44.511,44.511,0,0,1-9.76,5.346,14.356,14.356,0,0,1-6.2,1.148,49,49,0,0,1-14.137-2.926,55.4,55.4,0,0,1-6.233-2.828,79.889,79.889,0,0,0-12.49-5.6,19.957,19.957,0,0,0-5.17-.916m18.489-3.923a101.243,101.243,0,0,0-12.649-5.563c-3.519-1.152-6.678-1.128-10.262-1.025a43.263,43.263,0,0,0-9.719,1.532.285.285,0,0,0-.237.3v6.282q0,.264.257.2a49.54,49.54,0,0,1,10.483-1.59,28.734,28.734,0,0,1,11.742,1.757,108.066,108.066,0,0,1,11.407,5.3,47.005,47.005,0,0,0,6.241,2.763,49.64,49.64,0,0,0,10.99,2.4,12.475,12.475,0,0,0,5.558-.572,40.827,40.827,0,0,0,8.317-4.173c.4-.257.4-.637.4-1.062q-.012-2.336-.008-4.721a.2.2,0,0,0-.306-.167,21.521,21.521,0,0,1-7.867,3.09,27.862,27.862,0,0,1-8.141.02,50.769,50.769,0,0,1-16.2-4.778" transform="translate(-248.305 -100.313)" fill="#fff"/>
    <path id="Trazado_17" data-name="Trazado 17" d="M471.182,224.241a79.351,79.351,0,0,0,15.9,5.832,15.559,15.559,0,0,0,11.223-.9c3.3-1.7,6.409-3.838,9.527-5.754a.212.212,0,0,1,.323.184l.008,21.718a.232.232,0,0,1-.233.229l-71.371-.008a.153.153,0,0,1-.151-.151l.008-22.7a.28.28,0,0,1,.2-.286,39.847,39.847,0,0,1,13.009-2.763c4.381-.18,8.235-.253,12.31.969a58.789,58.789,0,0,1,9.249,3.629m2.068,4.541q-4.212-2.023-8.722-3.813a27.889,27.889,0,0,0-6.535-1.925,44.673,44.673,0,0,0-18.11,1.618.4.4,0,0,0-.29.384l.008,16.986a.306.306,0,0,0,.347.347l64.64-.012a.345.345,0,0,0,.392-.388l0-12.49c0-.364-.143-.437-.433-.221-3.155,2.342-7.046,4.3-10.985,4.557a21.435,21.435,0,0,1-5.812-.319q-2.667-.564-6.119-1.594a57.5,57.5,0,0,1-8.386-3.131" transform="translate(-248.3 -124.911)" fill="#fff"/>
    <path id="Trazado_18" data-name="Trazado 18" d="M431.33,348.3a.513.513,0,0,0-.335.482q-.031,17.319,0,34.167a10.684,10.684,0,0,0,.262,2.272,2.622,2.622,0,0,0,2.6,2.329c1.022.1,2.023.217,3.008.335a.454.454,0,0,1,.45.564l-.073.756a.425.425,0,0,1-.47.425,70.394,70.394,0,0,1-7.929-.156,38.638,38.638,0,0,0-4.1.172q-2.869-.006-5.738-.028a.5.5,0,0,1-.495-.515l.021-.682a.486.486,0,0,1,.494-.523c1.4-.122,3.956-.175,4.945-.94,1.455-1.128,1.206-3.2,1.365-4.875q.122-1.3.122-2.26.006-15.111,0-30.235a1.34,1.34,0,0,0-1.422-1.537,53.3,53.3,0,0,0-9.314.458c-2.742.38-4.679,2.914-5.575,5.338a.89.89,0,0,1-1.2.621l-.315-.086a.679.679,0,0,1-.535-.985,70.207,70.207,0,0,0,2.35-9.388.377.377,0,0,1,.3-.327q1.1-.282,1.4.67c.331,1.018,1.847,1.508,2.66,1.5q15.609-.092,31.061,0a3.341,3.341,0,0,0,3.143-1.585.6.6,0,0,1,.343-.262,1.337,1.337,0,0,1,.993.094.275.275,0,0,1,.164.339,46.973,46.973,0,0,0-1.022,10.238c0,.045-.02.065-.065.07l-1.639.024a.137.137,0,0,1-.139-.119,17.387,17.387,0,0,0-.805-3.58c-.572-1.684-2.636-2.432-4.234-2.632a59.208,59.208,0,0,0-8.807-.4,4.728,4.728,0,0,0-1.475.249" transform="translate(-231.588 -195.506)" fill="#fff"/>
    <path id="Trazado_19" data-name="Trazado 19" d="M307.669,388.515a5.294,5.294,0,0,0-.253-1.941q-1.808-5.609-3.637-11.214a1.572,1.572,0,0,0-1.484-1.083q-5.842-.043-11.513,0a1.715,1.715,0,0,0-1.651,1.275q-2.427,6.994-3.633,11.325c-.241.87-.482,2.109.789,2.317q1.294.208,2.747.368a.692.692,0,0,1,.687.769l0,.3a.59.59,0,0,1-.658.666q-2.624.025-5.256.025a8.316,8.316,0,0,1-1.455-.139,10.016,10.016,0,0,0-2.031.127q-2.133.018-4.332,0a.444.444,0,0,1-.495-.5l.008-.793a.419.419,0,0,1,.433-.466c2.644-.225,4.631-.343,5.787-3.135,4.725-11.374,8.848-22.838,13.258-34.319a8.512,8.512,0,0,0,.568-2.9.29.29,0,0,1,.184-.266,7.681,7.681,0,0,0,2.914-2.043.786.786,0,0,1,1.4.266q6.824,20.249,12.948,38.042a11.269,11.269,0,0,0,.805,1.728c1.365,2.489,3.086,2.293,5.448,2.653a.448.448,0,0,1,.425.5l-.012.809a.434.434,0,0,1-.429.429,64.087,64.087,0,0,1-6.858-.151,8.575,8.575,0,0,0-2.1.025,50.833,50.833,0,0,1-6.555.127.424.424,0,0,1-.478-.458l-.033-.74a.483.483,0,0,1,.511-.568,14.48,14.48,0,0,0,3.662-.654.408.408,0,0,0,.282-.368m-11.762-31.58q-2.606,7.154-4.974,13.654a.675.675,0,0,0,.637.9l9.809-.013c.535,0,.776-.269.719-.8a3.307,3.307,0,0,0-.131-.613c-1.6-5.068-3.159-10.009-4.916-14.811-.135-.368-.282-.372-.446-.016-.253.552-.486,1.116-.7,1.7" transform="translate(-156.746 -197.174)" fill="#fff"/>
    <path id="Trazado_20" data-name="Trazado 20" d="M508.982,368.614a22.491,22.491,0,0,1,20.852-22.029c11.951-1.1,22.254,4.819,24.931,16.851C557.8,377.082,549.77,390.144,535.58,392a26.72,26.72,0,0,1-10.058-.646A21.7,21.7,0,0,1,509,371.761q-.074-.784-.02-3.147M537.7,349.944a15.641,15.641,0,0,0-12.04-.135c-4.937,1.892-8.268,6.629-9.31,11.7a29.562,29.562,0,0,0,1.622,17.639c2.35,5.672,6.956,9.98,13.189,10.63a16.342,16.342,0,0,0,5.174-.143c13.961-3.127,14.329-21.359,9.543-31.519a15.591,15.591,0,0,0-8.178-8.17" transform="translate(-289.577 -197.119)" fill="#fff"/>
    <path id="Trazado_21" data-name="Trazado 21" d="M963.716,352.959c-1.561,4.369.8,8.19,4.422,10.487q3.317,2.1,6.621,4.2c3.891,2.472,6.862,5.938,7.451,10.667.875,7.03-3.613,12.478-10.524,13.585a22.762,22.762,0,0,1-13.491-1.855,1.134,1.134,0,0,1-.625-.719,34.6,34.6,0,0,1-1.553-8.759.467.467,0,0,1,.216-.441,1.607,1.607,0,0,1,1.291-.18.338.338,0,0,1,.274.253c.989,3.36,2.877,6.76,6.069,8.481a10.815,10.815,0,0,0,7.3,1.038c4.41-.822,6.56-4.778,5.865-9.077a9.714,9.714,0,0,0-4.459-6.678q-3.531-2.379-6.993-4.61c-4.749-3.061-8.3-8.1-6.935-14,1.8-7.806,10.148-9.8,17.006-8.542q2.268.417,4.684.956a.27.27,0,0,1,.225.212,26.98,26.98,0,0,1,.956,7.847.356.356,0,0,1-.192.319,1.846,1.846,0,0,1-1.243.233.358.358,0,0,1-.286-.25c-1.149-3.788-2.828-6.543-6.895-7.271-3.6-.641-7.839.323-9.188,4.1" transform="translate(-543.934 -197.122)" fill="#fff"/>
    <path id="Trazado_22" data-name="Trazado 22" d="M24.259,382.769Q31.622,365.683,36.409,354a7.206,7.206,0,0,0,.552-2.514.412.412,0,0,0-.245-.417,7.2,7.2,0,0,0-3.278-.781.782.782,0,0,1-.9-.887v-.217a.767.767,0,0,1,.916-.875c.74.037,1.438.2,2.2.209q3.978.018,7.716-.025a19.919,19.919,0,0,0,2.481-.188.758.758,0,0,1,.977.822l.008.241c.025.691-.306,1.005-.993.948-3.4-.282-4.467,1.6-5.8,4.205q-1.667,3.268-3.126,6.368-7.4,15.719-13.577,31.989a.547.547,0,0,1-.384.352,1.775,1.775,0,0,1-1.238-.156.641.641,0,0,1-.356-.413c-.58-1.933-1.2-3.919-1.945-5.8q-6.615-16.639-13.279-32.766-1.569-3.789-5.285-3.822a.756.756,0,0,1-.854-.936l.02-.249A.747.747,0,0,1,1,348.328a15.06,15.06,0,0,0,1.7.147q5.487.165,12.429-.11a.653.653,0,0,1,.772.744l0,.38a.706.706,0,0,1-.74.789,11.041,11.041,0,0,0-3.077.634.648.648,0,0,0-.442.891q.852,2.783,1.643,4.847,5.352,13.941,10.663,26.12a.171.171,0,0,0,.315,0" transform="translate(0 -198.167)" fill="#fff"/>
    <path id="Trazado_23" data-name="Trazado 23" d="M120.854,368.046q5.493.147,10.013-.025a2.3,2.3,0,0,0,2.383-1.941q.386-1.667.625-3.261a.279.279,0,0,1,.315-.262l1.238.025a.28.28,0,0,1,.274.278l-.012,13.287a.2.2,0,0,1-.164.213,2.273,2.273,0,0,1-1.332,0,.392.392,0,0,1-.269-.278c-.258-.9-.474-1.794-.65-2.681a2.765,2.765,0,0,0-2.665-2.489c-.9-.066-1.762-.237-2.681-.241q-2.838-.019-5.575-.013a6.864,6.864,0,0,0-1.414.159.405.405,0,0,0-.282.233,3.357,3.357,0,0,0-.327,1.238q-.03,4.764.041,9.384a27.521,27.521,0,0,0,.466,5.015c.617,2.9,3.735,3.094,6.114,3.212a52.208,52.208,0,0,0,8.689-.245,5.633,5.633,0,0,0,3.915-2.248,25.709,25.709,0,0,0,2.738-4.361,1.034,1.034,0,0,1,1.6-.49.758.758,0,0,1,.425.928,59.751,59.751,0,0,1-2.612,8.26.517.517,0,0,1-.519.352q-10.22-.006-20.991,0-2.666,0-5.672.155a56.6,56.6,0,0,1-5.71.008.551.551,0,0,1-.519-.588l.053-.662a.494.494,0,0,1,.531-.511c1.81-.078,4.749-.09,5.435-2.138a11.546,11.546,0,0,0,.47-3.54q.018-14.088,0-29.283c0-1.5-.066-4.03-1.766-4.7a7.352,7.352,0,0,0-2.718-.531q-.852-.007-.772-.858c.021-.2.033-.339.037-.4a.734.734,0,0,1,.919-.748,25.57,25.57,0,0,0,2.644.172q11.065.085,24.227.032c.519,0,.981-.11,1.48-.126a.416.416,0,0,1,.482.421l.879,8.239a.437.437,0,0,1-.462.548l-.846.061a.649.649,0,0,1-.675-.5q-1.465-6.075-6.179-6.159-1.41-.025-2.771-.155a64.987,64.987,0,0,0-7.307-.094,2.091,2.091,0,0,0-1.116.327.54.54,0,0,0-.225.311,7.745,7.745,0,0,0-.286,2.011q-.037,6.2,0,12.5a15.98,15.98,0,0,0,.237,1.913.266.266,0,0,0,.286.257" transform="translate(-61.614 -198.157)" fill="#fff"/>
    <path id="Trazado_24" data-name="Trazado 24" d="M202.789,350.923a7.506,7.506,0,0,0-3.6-.58.759.759,0,0,1-.919-.854l0-.323a.717.717,0,0,1,.854-.822,133.124,133.124,0,0,0,16.058,0,.626.626,0,0,1,.764.711l0,.552a.622.622,0,0,1-.728.7c-1.112-.037-3.5.1-4.2,1.071a4.251,4.251,0,0,0-.834,2.526q-.037,13.757-.028,30.472c0,2.142.752,4.463,3.012,5.06a18.241,18.241,0,0,0,4.263.531,51.472,51.472,0,0,0,7.389-.286c3.184-.438,4.806-4.525,6-6.985a.446.446,0,0,1,.417-.27,3,3,0,0,1,1.316.266.279.279,0,0,1,.163.315,66.075,66.075,0,0,1-2.558,8.84.712.712,0,0,1-.654.466q-5.536.08-10.8-.057c-.589-.012-1.169-.033-1.737-.057q-3.537-.141-7.14-.1-2.648.03-5.362.172-2.783.141-5.75.008a.39.39,0,0,1-.417-.417l-.033-.842a.393.393,0,0,1,.417-.458,27.411,27.411,0,0,0,3.212-.425c1.925-.359,2.195-1.475,2.42-3.09a10.6,10.6,0,0,0,.106-1.447q.006-15.02.008-29.9c0-1.451-.033-4.054-1.631-4.778" transform="translate(-112.8 -198.192)" fill="#fff"/>
    <path id="Trazado_25" data-name="Trazado 25" d="M649.58,364.717q1.747-3.85,3.613-8.178a28.4,28.4,0,0,0,1.643-4.814,1.227,1.227,0,0,0-1.275-1.431,19.286,19.286,0,0,1-2.3-.208.368.368,0,0,1-.347-.4l-.012-.924c0-.331.159-.478.49-.45a83.37,83.37,0,0,0,12.392.041.5.5,0,0,1,.6.556l.008.621a.513.513,0,0,1-.478.572,14.879,14.879,0,0,1-1.725.176,4.807,4.807,0,0,0-3.633,2.681,145.406,145.406,0,0,0-7.442,14.917.586.586,0,0,0-.021.4,12.37,12.37,0,0,0,.523,1.41q3.022,6.756,6.445,14.308a.143.143,0,0,0,.225.045.666.666,0,0,0,.172-.245q6-13.972,10.655-25.92.951-2.447,1.9-5.1a1.724,1.724,0,0,0-.233-1.974c-.789-.748-2.191-.5-3.229-.7a.927.927,0,0,1-.8-.8.729.729,0,0,1,.02-.388.812.812,0,0,1,.875-.6c1.112.045,2.182.216,3.339.216h6.041a25.42,25.42,0,0,0,2.579-.225c.421-.045.625.143.621.564l-.008.695a.648.648,0,0,1-.65.642c-2.685,0-4.091,1.242-5.145,3.576q-8.724,19.33-16.422,38.847a1.25,1.25,0,0,1-1.868.429.5.5,0,0,1-.233-.27q-3.611-9.091-7.684-17.934a.148.148,0,0,0-.266,0q-4.371,8.736-7.888,17.783a.96.96,0,0,1-.674.621,1.386,1.386,0,0,1-1.733-.907q-2.158-5.34-4.177-9.784-6.492-14.327-13.426-29.337a5.17,5.17,0,0,0-2.493-2.632,15.237,15.237,0,0,0-2.829-.5.675.675,0,0,1-.556-.74,1.235,1.235,0,0,1,.028-.274.852.852,0,0,1,1.083-.744,12.378,12.378,0,0,0,1.651.147q4.806.1,9.245,0,1.269-.03,2.648-.188c.438-.053.654.143.65.584l-.008.638a.663.663,0,0,1-.634.654,10.835,10.835,0,0,0-2.726.482.71.71,0,0,0-.47.875c.106.384.225.752.359,1.1q1.722,4.592,3.748,9.008,5.125,11.169,10.43,22.4a.156.156,0,0,0,.282,0q2.728-5.683,5.554-11.693a2.426,2.426,0,0,0,.1-2.1q-3.734-8.478-8.121-17.472a4.375,4.375,0,0,0-2.444-2.281,13.093,13.093,0,0,0-2.346-.331.81.81,0,0,1-.74-.919l.008-.2a.664.664,0,0,1,.85-.723q1.11.135,2.219.159,4.543.085,9.032.028c.948-.012,1.823-.139,2.73-.2a.336.336,0,0,1,.4.368l.029.9a.443.443,0,0,1-.393.5c-1.107.229-2.595.065-3.539.728a.391.391,0,0,0-.167.339,4,4,0,0,0,.319,1.369q2.588,6.051,5.383,12.2.116.251.233,0" transform="translate(-349.445 -198.164)" fill="#fff"/>
    <path id="Trazado_26" data-name="Trazado 26" d="M768.19,350.3a.536.536,0,0,1-.511-.527v-.858a.553.553,0,0,1,.523-.557c1.079-.057,2.085.2,3.172.2q12.157-.043,24.215-.009a5.683,5.683,0,0,0,1.39-.172.392.392,0,0,1,.486.339l.916,8.452a.3.3,0,0,1-.31.38l-1.116.115a.463.463,0,0,1-.547-.38,11.523,11.523,0,0,0-1.941-4.345A6.03,6.03,0,0,0,789.982,351q-5.254-.356-9.551-.249a4.813,4.813,0,0,0-1.185.184.966.966,0,0,0-.69.923l.008,15.547a.717.717,0,0,0,.711.711q4.445.037,9.053-.008c1.341-.016,2.743-.392,3.066-1.953q.312-1.527.613-3.152a.432.432,0,0,1,.47-.392l1.059-.012a.393.393,0,0,1,.45.457c-.033,1.484-.1,2.914-.2,4.283a27.634,27.634,0,0,0-.041,4q.165,2.194.237,4.455c.016.47-.213.695-.683.682l-.613-.016a.662.662,0,0,1-.691-.576q-.282-1.325-.617-2.735a2.767,2.767,0,0,0-2.656-2.215,52.737,52.737,0,0,0-7.941-.266,5.476,5.476,0,0,0-1.594.216.86.86,0,0,0-.613.818q-.043,5.867,0,11.759a16.656,16.656,0,0,0,.306,2.958,3.306,3.306,0,0,0,2.15,2.813,14.875,14.875,0,0,0,4.16.695,43.409,43.409,0,0,0,9.171-.372,5.14,5.14,0,0,0,3-1.721,25.506,25.506,0,0,0,3.245-5.1.533.533,0,0,1,.425-.3,2.014,2.014,0,0,1,1.332.273.438.438,0,0,1,.2.47,64.448,64.448,0,0,1-2.7,8.64.459.459,0,0,1-.466.319q-11.157-.043-22.311,0-.938,0-5.08.175-2.195.092-5.146-.025a.354.354,0,0,1-.384-.4l.008-.936a.316.316,0,0,1,.306-.347c1.067-.143,2.121-.266,3.155-.368a2.773,2.773,0,0,0,2.722-2.6,33.653,33.653,0,0,0,.359-4.81q-.012-12.715-.012-26.087c0-1.214-.172-2.427-.29-3.641-.233-2.391-2.665-2.722-4.537-2.8" transform="translate(-436.095 -198.196)" fill="#fff"/>
    <path id="Trazado_27" data-name="Trazado 27" d="M881.032,371.342a108.54,108.54,0,0,0,10.054,14.742c2.08,2.534,4.626,4.945,8.015,5.419a.392.392,0,0,1,.331.311.648.648,0,0,1-.605.887c-5.1.756-9.6-.311-13.176-4.194a34.072,34.072,0,0,1-3.495-4.475q-3-4.629-5.844-9.135a4.6,4.6,0,0,0-3.188-2.191,9.467,9.467,0,0,0-4.353.139.325.325,0,0,0-.237.315q-.007,5.75-.021,11.595a16.954,16.954,0,0,0,.335,3.139c.429,2.293,2.783,2.317,4.639,2.579a.681.681,0,0,1,.588.687l-.012.609a.429.429,0,0,1-.487.478l-15.943.008a.48.48,0,0,1-.531-.458l-.09-.588a.535.535,0,0,1,.556-.695c1.761-.131,4.814-.4,5.068-2.5a30.117,30.117,0,0,0,.339-3.625q.006-14.339-.012-28.021a22.2,22.2,0,0,0-.356-3.4,2.156,2.156,0,0,0-1.937-1.86q-1.269-.251-2.693-.409a.4.4,0,0,1-.352-.388l-.012-1.01a.268.268,0,0,1,.188-.274,4.319,4.319,0,0,1,1.39-.3q4.929-.22,9.551-.388a69.231,69.231,0,0,1,9.217.266c5.15.5,10.234,3.2,11.19,8.746,1.107,6.445-2.383,10.79-7.9,13.311a.486.486,0,0,0-.217.687M877.893,351.7a14.222,14.222,0,0,0-8.154-.96,1.385,1.385,0,0,0-1.2,1.422q-.012,8.516-.012,17.076a.916.916,0,0,0,1.026,1.038c2.865.021,6.09.388,8.738-.723,3.409-1.43,4.8-4.872,4.855-8.391q.092-6.682-5.252-9.461" transform="translate(-487.6 -198.16)" fill="#fff"/>
    <path id="Trazado_28" data-name="Trazado 28" d="M203.388,513.694a8.034,8.034,0,0,1-2.983-.542,6.969,6.969,0,0,1-3.934-3.831,7.776,7.776,0,0,1,0-5.8,6.942,6.942,0,0,1,1.574-2.309,7.156,7.156,0,0,1,2.381-1.522,8.043,8.043,0,0,1,2.984-.542,8.147,8.147,0,0,1,2.922.521,5.87,5.87,0,0,1,2.309,1.563l-.96.961a5.33,5.33,0,0,0-1.941-1.3,6.481,6.481,0,0,0-2.289-.4,6.4,6.4,0,0,0-2.391.44,5.7,5.7,0,0,0-1.921,1.246,5.864,5.864,0,0,0-1.277,1.88,6.287,6.287,0,0,0,0,4.721,5.857,5.857,0,0,0,1.277,1.88,5.7,5.7,0,0,0,1.921,1.247,6.4,6.4,0,0,0,2.391.439,6.325,6.325,0,0,0,2.289-.409,5.435,5.435,0,0,0,1.941-1.308l.96.96a5.967,5.967,0,0,1-2.309,1.574,8.063,8.063,0,0,1-2.943.531" transform="translate(-111.464 -283.993)" fill="#fff"/>
    <rect id="Rect치ngulo_2" data-name="Rect치ngulo 2" width="1.512" height="14.304" transform="translate(108.578 215.273)" fill="#fff"/>
    <path id="Trazado_29" data-name="Trazado 29" d="M290.778,513.856a5.825,5.825,0,0,1-4.312-1.573,6.319,6.319,0,0,1-1.574-4.66v-8.194h1.513v8.133a5.271,5.271,0,0,0,1.144,3.739,4.953,4.953,0,0,0,6.478,0,5.273,5.273,0,0,0,1.144-3.739v-8.133h1.471v8.194a6.346,6.346,0,0,1-1.563,4.66,5.792,5.792,0,0,1-4.3,1.573" transform="translate(-162.093 -284.155)" fill="#fff"/>
    <path id="Trazado_30" data-name="Trazado 30" d="M341.689,513.732v-14.3h5.824a8.5,8.5,0,0,1,4.016.91,6.679,6.679,0,0,1,2.687,2.524,7.678,7.678,0,0,1,0,7.438,6.672,6.672,0,0,1-2.687,2.524,8.494,8.494,0,0,1-4.016.909Zm1.512-1.308h4.23a6.913,6.913,0,0,0,3.3-.746,5.428,5.428,0,0,0,2.176-2.064,6.339,6.339,0,0,0,0-6.079,5.459,5.459,0,0,0-2.176-2.053,6.924,6.924,0,0,0-3.3-.746H343.2Z" transform="translate(-194.407 -284.155)" fill="#fff"/>
    <path id="Trazado_31" data-name="Trazado 31" d="M394.028,513.732l6.539-14.3h1.492l6.539,14.3H407L401,500.307h.613L395.6,513.732Zm2.575-3.821.45-1.226h8.317l.45,1.226Z" transform="translate(-224.186 -284.155)" fill="#fff"/>
    <path id="Trazado_32" data-name="Trazado 32" d="M452.293,513.732v-14.3h5.824a8.5,8.5,0,0,1,4.016.91,6.679,6.679,0,0,1,2.687,2.524,7.678,7.678,0,0,1,0,7.438,6.672,6.672,0,0,1-2.687,2.524,8.494,8.494,0,0,1-4.016.909Zm1.512-1.308h4.23a6.913,6.913,0,0,0,3.3-.746,5.428,5.428,0,0,0,2.176-2.064,6.339,6.339,0,0,0,0-6.079,5.459,5.459,0,0,0-2.176-2.053,6.924,6.924,0,0,0-3.3-.746h-4.23Z" transform="translate(-257.337 -284.155)" fill="#fff"/>
    <path id="Trazado_33" data-name="Trazado 33" d="M540.149,513.856a4.939,4.939,0,0,1-2.258-.531,4.246,4.246,0,0,1-1.686-1.513l.879-1.022a4.273,4.273,0,0,0,1.369,1.308,3.365,3.365,0,0,0,1.716.45q2.657,0,2.656-3.147v-8.664h-5.231v-1.308h6.723v9.911a4.809,4.809,0,0,1-1.052,3.392,4.068,4.068,0,0,1-3.116,1.124" transform="translate(-305.079 -284.155)" fill="#fff"/>
    <path id="Trazado_34" data-name="Trazado 34" d="M590.114,513.856a5.825,5.825,0,0,1-4.312-1.573,6.319,6.319,0,0,1-1.574-4.66v-8.194h1.513v8.133a5.271,5.271,0,0,0,1.144,3.739,4.953,4.953,0,0,0,6.478,0,5.273,5.273,0,0,0,1.144-3.739v-8.133h1.471v8.194a6.344,6.344,0,0,1-1.563,4.66,5.791,5.791,0,0,1-4.3,1.573" transform="translate(-332.403 -284.155)" fill="#fff"/>
    <path id="Trazado_35" data-name="Trazado 35" d="M635,508.85l6.539-14.3h1.492l6.539,14.3H647.98l-6.008-13.426h.613l-6.008,13.426Zm2.575-3.821.45-1.226h8.317l.45,1.226Zm3.392-11.648,2.8-2.534h1.941l-3.31,2.534Z" transform="translate(-361.292 -279.272)" fill="#fff"/>
    <path id="Trazado_36" data-name="Trazado 36" d="M693.269,513.732v-14.3h5.354a7.645,7.645,0,0,1,3.126.582,4.5,4.5,0,0,1,2.013,1.676,4.78,4.78,0,0,1,.705,2.646,4.7,4.7,0,0,1-.705,2.606,4.5,4.5,0,0,1-2.013,1.675,7.644,7.644,0,0,1-3.126.583h-4.516l.675-.695v5.231Zm1.512-5.109-.675-.715h4.475a4.932,4.932,0,0,0,3.259-.94,3.7,3.7,0,0,0,0-5.293,4.932,4.932,0,0,0-3.259-.94h-4.475l.675-.715Zm8.256,5.109-3.678-5.191h1.635l3.7,5.191Z" transform="translate(-394.442 -284.155)" fill="#fff"/>
    <path id="Trazado_37" data-name="Trazado 37" d="M748.02,512.425h8.6v1.308H746.508v-14.3h9.809v1.308h-8.3Zm-.163-6.6h7.561v1.287h-7.561Z" transform="translate(-424.733 -284.155)" fill="#fff"/>
    <path id="Trazado_38" data-name="Trazado 38" d="M793.916,513.733v-1.042l9.931-12.526.164.572h-9.952v-1.308H805.4v1.042L795.49,513l-.184-.572h10.34v1.308Z" transform="translate(-451.706 -284.155)" fill="#fff"/>
  </g>
</svg>
